<?xml version="1.0" encoding="utf-8"?>
<svg viewBox="0 1.402 611.243 390.551" xmlns="http://www.w3.org/2000/svg">
  <path d="M 296.364 1.402 C 315.309 1.402 330.56 16.653 330.56 35.597 L 330.56 271.867 C 330.56 289.443 311.432 303.84 294.406 305.828 C 301.506 298.64 305.878 288.75 305.878 277.801 L 305.878 218.032 C 305.878 195.957 288.106 174.185 266.031 174.185 L 220.945 174.145 L 220.876 174.1 L 220.876 35.597 C 220.876 16.653 226.127 1.402 245.071 1.402 L 296.364 1.402 Z" fill="#ff0094" style="" transform="matrix(1, 0, 0, 1, 1.1368683772161603e-13, 0)"/>
  <path d="M 525.754 102.586 C 506.81 102.586 491.559 117.837 491.559 136.782 L 491.559 273.563 C 491.559 292.507 506.81 307.758 525.754 307.758 L 577.048 307.758 C 595.992 307.758 611.243 292.507 611.243 273.563 L 611.243 136.782 C 611.243 117.837 595.992 102.586 577.048 102.586 L 525.754 102.586 Z" fill="#ff0094" transform="matrix(1, 0, 0, 1, 1.1368683772161603e-13, 0)"/>
  <path d="M 384.698 17.098 C 365.754 17.098 350.503 32.349 350.503 51.293 L 350.503 273.563 C 350.503 292.507 365.754 307.758 384.698 307.758 L 435.991 307.758 C 454.936 307.758 470.187 292.507 470.187 273.563 L 470.187 51.293 C 470.187 32.349 454.936 17.098 435.991 17.098 L 384.698 17.098 Z" fill="#ff0094" transform="matrix(1, 0, 0, 1, 1.1368683772161603e-13, 0)"/>
  <path d="M 203.88 357.757 C 203.88 376.702 188.628 391.953 169.684 391.953 L 118.391 391.953 C 99.447 391.953 84.196 376.702 84.196 357.757 L 84.196 307.758 L 34.195 307.758 C 15.251 307.758 0 292.507 0 273.563 L 0 222.27 C 0 203.326 15.251 188.074 34.195 188.074 L 84.196 188.074 L 84.196 138.073 C 84.196 119.129 99.447 103.878 118.391 103.878 L 169.684 103.878 C 188.628 103.878 203.88 119.129 203.88 138.073 L 203.88 188.074 L 253.879 188.074 C 272.824 188.074 288.075 203.326 288.075 222.27 L 288.075 273.563 C 288.075 292.507 272.824 307.758 253.879 307.758 L 203.88 307.758 L 203.88 357.757 Z" style="fill: rgb(15, 254, 0); stroke-miterlimit: 18.35; stroke-dashoffset: 36px; stroke-width: 13px;" transform="matrix(1, 0, 0, 1, 1.1368683772161603e-13, 0)"/>
</svg>