<?xml version="1.0" encoding="utf-8"?>
<svg xmlns="http://www.w3.org/2000/svg" viewBox="0 1.402 619.243 390.551" width="619.243px" height="390.551px"><g id="object-5" transform="matrix(0.9999999999999999, 0, 0, 0.9999999999999999, 1.1368683772161603e-13, 0)"><path d="M 304.364 1.402 C 323.309 1.402 338.56 16.653 338.56 35.597 L 338.56 271.867 C 338.56 289.443 311.432 303.84 294.406 305.828 C 301.506 298.64 305.878 288.75 305.878 277.801 L 305.878 218.032 C 305.878 195.957 288.106 171.185 266.031 171.185 L 220.945 171.145 L 220.876 35.597 C 220.876 16.653 231.963 1.402 250.907 1.402 L 304.364 1.402 Z" fill="#ff0094" style="" id="object-0"/><path d="M 533.754 102.586 C 514.81 102.586 499.559 117.837 499.559 136.782 L 499.559 273.563 C 499.559 292.507 514.81 307.758 533.754 307.758 L 585.048 307.758 C 603.992 307.758 619.243 292.507 619.243 273.563 L 619.243 136.782 C 619.243 117.837 603.992 102.586 585.048 102.586 L 533.754 102.586 Z" fill="#ff0094" id="object-1"/><path d="M 392.698 17.098 C 373.754 17.098 358.503 32.349 358.503 51.293 L 358.503 273.563 C 358.503 292.507 373.754 307.758 392.698 307.758 L 443.991 307.758 C 462.936 307.758 478.187 292.507 478.187 273.563 L 478.187 51.293 C 478.187 32.349 462.936 17.098 443.991 17.098 L 392.698 17.098 Z" fill="#ff0094" id="object-2"/><path d="M 203.88 357.757 C 203.88 376.702 188.628 391.953 169.684 391.953 L 118.391 391.953 C 99.447 391.953 84.196 376.702 84.196 357.757 L 84.196 307.758 L 34.195 307.758 C 15.251 307.758 0 292.507 0 273.563 L 0 222.27 C 0 203.326 15.251 188.074 34.195 188.074 L 84.196 188.074 L 84.196 138.073 C 84.196 119.129 99.447 103.878 118.391 103.878 L 169.684 103.878 C 188.628 103.878 203.88 119.129 203.88 138.073 L 203.88 188.074 L 253.879 188.074 C 272.824 188.074 288.075 203.326 288.075 222.27 L 288.075 273.563 C 288.075 292.507 272.824 307.758 253.879 307.758 L 203.88 307.758 L 203.88 357.757 Z" style="stroke-miterlimit: 18.35; stroke-dashoffset: 36px; stroke-width: 13px; fill: rgb(255, 0, 148);" id="object-3"/></g></svg>